{"title":"Kung Fu Panda 2 [2011] 720p BRRip H264 AAC - CODY","uid":6745027,"size":1324923136,"categoryP":"video","categoryS":"hd___movies","magnet":"?xt=urn:btih:cf1cd4bb5cafabff7c5bdddaacd084d3fbf1034c&amp;dn=Kung+Fu+Panda+2+%5B2011%5D+720p+BRRip+H264+AAC+-+CODY&amp;tr=udp%3A%2F%2Ftracker.openbittorrent.com%3A80&amp;tr=udp%3A%2F%2Fopen.demonii.com%3A1337&amp;tr=udp%3A%2F%2Ftracker.coppersurfer.tk%3A6969&amp;tr=udp%3A%2F%2Fexodus.desync.com%3A6969","seeders":0,"leechers":1,"uploader":"CODYBOSS1969","files":4,"time":1318654740,"description":"General\nComplete name                    : Kung Fu Panda 2 [2011] 720p BRRip H264 AAC - CODY.mp4\nFormat                           : MPEG-4\nFormat profile                   : Base Media\nCodec ID                         : isom\nFile size                        : 1.23 GiB\nDuration                         : 1h 30mn\nOverall bit rate                 : 1 954 Kbps\nEncoded date                     : UTC 2011-10-14 02:02:25\nTagged date                      : UTC 2011-10-14 02:02:25\n\nVideo\nID                               : 1\nFormat                           : AVC\nFormat/Info                      : Advanced Video Codec\nFormat profile                   : &lt;a class=&quot;__cf_email__&quot; href=&quot;/cdn-cgi/l/email-protection&quot; data-cfemail=&quot;430b2a242b030f706d72&quot;&gt;[email&amp;#160;protected]&lt;/a&gt;&lt;script cf-hash='f9e31' type=&quot;text/javascript&quot;&gt;\n/* &lt;![CDATA[ */!function(){try{var t=&quot;currentScript&quot;in document?document.currentScript:function(){for(var t=document.getElementsByTagName(&quot;script&quot;),e=t.length;e--;)if(t[e].getAttribute(&quot;cf-hash&quot;))return t[e]}();if(t&amp;&amp;t.previousSibling){var e,r,n,i,c=t.previousSibling,a=c.getAttribute(&quot;data-cfemail&quot;);if(a){for(e=&quot;&quot;,r=parseInt(a.substr(0,2),16),n=2;a.length-n;n+=2)i=parseInt(a.substr(n,2),16)^r,e+=String.fromCharCode(i);e=document.createTextNode(e),c.parentNode.replaceChild(e,c)}}}catch(u){}}();/* ]]&gt; */&lt;/script&gt;\nFormat settings, CABAC           : Yes\nFormat settings, ReFrames        : 3 frames\nCodec ID                         : avc1\nCodec ID/Info                    : Advanced Video Coding\nDuration                         : 1h 30mn\nBit rate mode                    : Variable\nBit rate                         : 1 655 Kbps\nMaximum bit rate                 : 6 352 Kbps\nWidth                            : 1 280 pixels\nHeight                           : 544 pixels\nDisplay aspect ratio             : 2.35:1\nFrame rate mode                  : Constant\nFrame rate                       : 23.976 fps\nColor space                      : YUV\nChroma subsampling               : 4:2:0\nBit depth                        : 8 bits\nScan type                        : Progressive\nBits/(Pixel*Frame)               : 0.099\nStream size                      : 1.04 GiB (85%)\nWriting library                  : x264 core 65 r999kMod cc51047\nEncoding settings                : cabac=1 / ref=3 / deblock=1:-2:-1 / analyse=0x3:0x133 / me=umh / subme=7 / psy_rd=1.0:0.0 / mixed_ref=1 / me_range=16 / chroma_me=1 / trellis=2 / 8x8dct=1 / cqm=0 / deadzone=21,11 / chroma_qp_offset=-2 / threads=6 / thread_queue=6 / nr=0 / decimate=0 / mbaff=0 / bframes=6 / b_pyramid=0 / b_adapt=1 / b_bias=0 / direct=3 / wpredb=1 / keyint=250 / keyint_min=25 / scenecut=40(pre) / rc=2pass / bitrate=1655 / ratetol=1.0 / qcomp=0.60 / qpmin=10 / qpmax=51 / qpstep=4 / cplxblur=20.0 / qblur=0.5 / ip_ratio=1.40 / pb_ratio=1.30 / aq=1:1.00\nEncoded date                     : UTC 2011-10-14 02:02:25\nTagged date                      : UTC 2011-10-14 02:02:53\n\nAudio\nID                               : 2\nFormat                           : AAC\nFormat/Info                      : Advanced Audio Codec\nFormat profile                   : LC\nCodec ID                         : 40\nDuration                         : 1h 30mn\nBit rate mode                    : Variable\nBit rate                         : 296 Kbps\nMaximum bit rate                 : 419 Kbps\nChannel(s)                       : 6 channels\nChannel positions                : Front: L C R, Side: L R, LFE\nSampling rate                    : 48.0 KHz\nCompression mode                 : Lossy\nStream size                      : 191 MiB (15%)\nEncoded date                     : UTC 2011-10-14 02:02:51\nTagged date                      : UTC 2011-10-14 02:02:53\n\n\n\n\nIMDB link:                        &lt;a href=&quot; http://www.imdb.com/title/tt1302011/&quot; rel=&quot;nofollow&quot; target=&quot;_NEW&quot;&gt; http://www.imdb.com/title/tt1302011/&lt;/a&gt;\n  \n\n\n\nSubtitles included               : Romanian\n\n\n\n\nPlease seed at least 1,5:1. This way this torrent has a chance to survive !\n\n\n\n\nThanks. ENJOY !!!\n\n_______________________\n","torrent":{"xt":"urn:btih:cf1cd4bb5cafabff7c5bdddaacd084d3fbf1034c","amp;dn":"Kung+Fu+Panda+2+%5B2011%5D+720p+BRRip+H264+AAC+-+CODY","amp;tr":["udp%3A%2F%2Ftracker.openbittorrent.com%3A80","udp%3A%2F%2Fopen.demonii.com%3A1337","udp%3A%2F%2Ftracker.coppersurfer.tk%3A6969","udp%3A%2F%2Fexodus.desync.com%3A6969"],"infoHash":"cf1cd4bb5cafabff7c5bdddaacd084d3fbf1034c","infoHashBuffer":{"type":"Buffer","data":[207,28,212,187,92,175,171,255,124,91,221,218,172,208,132,211,251,241,3,76]},"announce":[],"urlList":[]}}